<?xml version="1.0" standalone="no"?>
<!DOCTYPE svg PUBLIC "-//W3C//DTD SVG 20010904//EN"
 "http://www.w3.org/TR/2001/REC-SVG-20010904/DTD/svg10.dtd">
<svg version="1.0" xmlns="http://www.w3.org/2000/svg"
 width="202.000000pt" height="127.000000pt" viewBox="0 0 202.000000 127.000000"
 preserveAspectRatio="xMidYMid meet">

<g transform="translate(0.000000,127.000000) scale(0.100000,-0.100000)"
fill="#000000" stroke="none">
<path d="M1410 1094 c-6 -14 -10 -36 -10 -50 0 -22 4 -24 43 -24 71 0 92 -44
35 -69 -36 -16 -58 -35 -58 -49 0 -5 26 -78 58 -163 38 -98 64 -154 73 -154
16 0 16 10 -1 150 -16 131 -17 220 -3 218 6 -1 14 4 17 12 6 18 -109 155 -130
155 -8 0 -19 -12 -24 -26z"/>
<path d="M814 955 c-26 -41 -52 -75 -58 -76 -6 -1 -21 -2 -33 -2 -18 -2 -33
-24 -75 -106 -29 -58 -59 -107 -65 -109 -7 -2 -21 10 -30 26 -10 17 -31 38
-47 48 -32 19 -32 19 -109 -80 -30 -39 -52 -44 -83 -21 -26 19 -41 19 -47 -2
-3 -10 -23 -68 -45 -130 -21 -62 -35 -110 -30 -107 5 3 24 37 44 75 38 77 59
93 81 63 13 -18 18 -15 79 49 35 37 66 67 68 67 2 0 9 -23 16 -51 9 -35 19
-53 33 -58 27 -10 64 -2 71 15 8 21 148 194 157 194 4 0 16 -12 27 -27 19 -26
42 -25 42 3 0 9 11 40 25 69 25 56 47 65 60 24 8 -26 22 -24 30 4 4 12 18 34
31 48 l25 26 -52 64 c-28 35 -54 65 -59 67 -4 2 -29 -31 -56 -73z"/>
<path d="M1296 959 c-65 -22 -127 -37 -137 -34 -11 4 -33 -1 -51 -9 -17 -9
-39 -16 -49 -16 -20 0 -109 -83 -109 -102 0 -7 -13 -40 -29 -73 -42 -87 -44
-98 -21 -113 16 -10 23 -8 45 14 14 14 25 27 25 29 0 3 7 13 15 23 9 9 29 33
45 53 23 28 73 58 203 123 95 47 178 86 185 86 6 0 12 5 12 10 0 6 9 10 20 10
13 0 20 7 20 20 0 30 -36 25 -174 -21z"/>
<path d="M1551 885 c0 -35 1 -37 10 -17 6 15 5 30 -1 40 -7 13 -9 8 -9 -23z"/>
<path d="M1152 775 c-35 -18 -70 -39 -78 -46 -23 -19 -56 -88 -48 -102 21 -38
79 -117 85 -117 5 0 13 19 19 43 48 184 43 186 135 -53 21 -52 43 -106 50
-119 12 -24 13 -22 20 30 4 30 8 71 9 91 1 21 5 41 9 44 4 4 27 -2 51 -14 57
-29 63 -28 83 12 15 33 15 38 -7 98 -34 93 -34 92 -92 53 -28 -19 -56 -35 -64
-35 -7 0 -32 34 -55 75 -22 41 -44 75 -47 74 -4 0 -35 -15 -70 -34z"/>
<path d="M1654 667 c-17 -7 -30 -16 -28 -22 1 -5 5 -27 9 -47 6 -41 24 -50 32
-18 3 11 9 20 13 20 8 0 40 -34 40 -42 0 -10 81 -148 87 -148 5 0 -4 34 -22
75 -7 17 -27 67 -45 113 -18 45 -37 82 -44 81 -6 0 -25 -6 -42 -12z"/>
<path d="M760 585 c10 -10 14 -30 12 -65 -4 -57 -19 -64 -50 -25 -24 30 -32
23 -32 -27 0 -46 -17 -51 -22 -5 l-3 32 -126 2 c-80 1 -134 -3 -149 -10 -26
-13 -45 -67 -36 -104 5 -19 13 -23 41 -23 19 0 35 5 35 10 0 6 -4 10 -10 10
-5 0 -10 23 -10 50 l0 50 59 0 59 0 4 -42 c3 -24 2 -47 -3 -52 -4 -4 -26 -9
-48 -9 -23 -1 -41 -5 -41 -9 0 -4 50 -8 110 -8 61 0 110 -4 110 -8 0 -18 -26
-32 -62 -32 -68 0 -136 -20 -152 -45 -20 -31 -2 -71 38 -85 17 -6 140 -10 293
-10 298 0 313 3 313 65 0 18 -6 37 -12 42 -20 15 -102 33 -151 33 -32 0 -47 5
-51 16 -9 22 -8 22 17 26 18 2 22 10 24 43 1 22 0 34 -3 28 -8 -18 -84 -16
-108 2 -21 16 -27 82 -13 138 7 24 5 27 -20 27 -24 0 -25 -2 -13 -15z m-252
-345 c-3 -35 -9 -37 -31 -12 -13 14 -14 21 -5 30 22 22 38 14 36 -18z m552 6
c0 -30 -27 -42 -35 -16 -8 24 1 40 21 40 8 0 14 -10 14 -24z"/>
<path d="M865 590 c3 -5 11 -10 16 -10 6 0 7 5 4 10 -3 6 -11 10 -16 10 -6 0
-7 -4 -4 -10z"/>
<path d="M718 583 c7 -3 16 -2 19 1 4 3 -2 6 -13 5 -11 0 -14 -3 -6 -6z"/>
<path d="M890 545 c0 -8 4 -15 10 -15 5 0 7 7 4 15 -4 8 -8 15 -10 15 -2 0 -4
-7 -4 -15z"/>
<path d="M1542 548 c-15 -15 -16 -45 -1 -50 8 -3 8 -10 -2 -26 -12 -19 -11
-26 5 -53 11 -18 20 -55 22 -82 2 -54 14 -73 38 -64 13 5 16 25 16 106 0 70
-4 101 -12 104 -10 4 -10 8 0 15 8 5 12 20 10 33 -2 18 -10 25 -33 27 -17 2
-36 -3 -43 -10z"/>
<path d="M1130 253 c0 -10 -3 -28 -6 -40 l-6 -23 216 0 c119 0 216 3 216 8 -1
25 -33 46 -72 47 -24 1 -47 3 -53 5 -5 2 -46 -2 -90 -9 -75 -12 -85 -11 -140
8 -71 25 -65 25 -65 4z"/>
<path d="M350 250 c0 -6 -16 -10 -35 -10 -20 0 -46 -7 -59 -15 -19 -13 -29
-13 -49 -4 -18 8 -30 8 -46 0 -44 -24 -19 -31 114 -31 l135 0 0 24 c0 14 -6
28 -12 33 -20 12 -48 14 -48 3z"/>
<path d="M1670 243 c-17 -6 -40 -32 -40 -45 0 -4 56 -8 125 -8 104 0 125 2
125 15 0 15 -23 19 -82 15 -14 -1 -40 6 -57 14 -31 17 -45 18 -71 9z"/>
</g>
</svg>
