<svg width="17" height="17" viewBox="0 0 17 17" fill="none" xmlns="http://www.w3.org/2000/svg">
<g clip-path="url(#clip0_317_423)">
<rect x="0.171631" y="7.4635" width="9.3657" height="9.3657" fill="#7595FD"/>
<path d="M4.42633 13.3371L4.59358 14.8222L5.67732 13.792L7.53039 8.70779C7.07548 8.59406 6.6741 8.36661 6.3463 8.05219L4.42633 13.3371ZM10.0524 8.05219C9.72464 8.36661 9.31656 8.59406 8.86835 8.70779L10.7214 13.792L11.8052 14.8222L11.9791 13.3371L10.0524 8.05219V8.05219ZM10.1662 6.52692C10.3669 5.48331 9.76478 4.56012 8.86835 4.23901V3.44962C8.86835 3.08168 8.56731 2.78064 8.19937 2.78064C7.83143 2.78064 7.53039 3.08168 7.53039 3.44962V4.23901C6.75438 4.51998 6.19243 5.25586 6.19243 6.12553C6.19243 7.35645 7.30294 8.33316 8.574 8.09902C9.36339 7.95184 10.0123 7.31631 10.1662 6.52692V6.52692ZM8.19937 6.79451C7.83143 6.79451 7.53039 6.49347 7.53039 6.12553C7.53039 5.75759 7.83143 5.45655 8.19937 5.45655C8.56731 5.45655 8.86835 5.75759 8.86835 6.12553C8.86835 6.49347 8.56731 6.79451 8.19937 6.79451Z" fill="#292E3D"/>
</g>
<defs>
<clipPath id="clip0_317_423">
<rect width="16.0555" height="16.0555" fill="white" transform="translate(0.171631 0.773743)"/>
</clipPath>
</defs>
</svg>
