<svg width="17" height="17" viewBox="0 0 17 17" fill="none" xmlns="http://www.w3.org/2000/svg">
<g clip-path="url(#clip0_317_429)">
<rect x="0.0827026" y="7.4635" width="9.3657" height="9.3657" fill="#7595FD"/>
<path d="M14.1312 10.1394C14.1312 9.77147 13.8302 9.47043 13.4622 9.47043H12.1243V10.8084H13.4622C13.8302 10.8084 14.1312 10.5073 14.1312 10.1394ZM13.4622 12.1463H12.1243V13.4843H13.4622C13.8302 13.4843 14.1312 13.1833 14.1312 12.8153C14.1312 12.4474 13.8302 12.1463 13.4622 12.1463ZM8.11042 10.1394H6.77246V12.8153H8.11042C8.11042 13.5512 8.7125 14.1533 9.44837 14.1533H11.4553V8.80145H9.44837C8.7125 8.80145 8.11042 9.40353 8.11042 10.1394Z" fill="white"/>
<path d="M3.42762 9.47045C3.42762 8.73457 4.0297 8.13249 4.76557 8.13249H5.76904C7.06017 8.13249 8.11047 7.0822 8.11047 5.79107C8.11047 4.49994 7.06017 3.44965 5.76904 3.44965H3.42762C3.05968 3.44965 2.75864 3.75069 2.75864 4.11862C2.75864 4.48656 3.05968 4.7876 3.42762 4.7876H5.76904C6.32429 4.7876 6.77251 5.23582 6.77251 5.79107C6.77251 6.34632 6.32429 6.79454 5.76904 6.79454H4.76557C3.28713 6.79454 2.08966 7.99201 2.08966 9.47045C2.08966 10.9489 3.28713 12.1464 4.76557 12.1464H6.10353V10.8084H4.76557C4.0297 10.8084 3.42762 10.2063 3.42762 9.47045Z" fill="white"/>
</g>
<defs>
<clipPath id="clip0_317_429">
<rect width="16.0555" height="16.0555" fill="white" transform="translate(0.0827026 0.773743)"/>
</clipPath>
</defs>
</svg>
