<svg width="17" height="17" viewBox="0 0 17 17" fill="none" xmlns="http://www.w3.org/2000/svg">
<g clip-path="url(#clip0_317_417)">
<rect x="0.0598145" y="7.4635" width="9.3657" height="9.3657" fill="#7595FD"/>
<path d="M12.1014 11.4774H10.7635V10.8084H5.41164V11.4774H4.07368V10.8084H1.39777V14.1533H14.7773V10.8084H12.1014V11.4774ZM13.4394 6.12556H11.4324V4.7876C11.4324 4.05173 10.8304 3.44965 10.0945 3.44965H6.08061C5.34474 3.44965 4.74266 4.05173 4.74266 4.7876V6.12556H2.73572C1.99985 6.12556 1.39777 6.72764 1.39777 7.46352V10.1394H4.07368V8.80147H5.41164V10.1394H10.7635V8.80147H12.1014V10.1394H14.7773V7.46352C14.7773 6.72764 14.1753 6.12556 13.4394 6.12556ZM10.0945 6.12556H6.08061V4.7876H10.0945V6.12556Z" fill="white"/>
</g>
<defs>
<clipPath id="clip0_317_417">
<rect width="16.0555" height="16.0555" fill="white" transform="translate(0.0598145 0.773743)"/>
</clipPath>
</defs>
</svg>
