<svg width="17" height="17" viewBox="0 0 17 17" fill="none" xmlns="http://www.w3.org/2000/svg">
<g clip-path="url(#clip0_317_411)">
<rect x="0.0827026" y="7.5459" width="9.3657" height="9.3657" fill="#7595FD"/>
<path d="M7.44147 4.86999H9.44841L11.6493 2.66236C11.7115 2.59966 11.7855 2.54989 11.867 2.51593C11.9486 2.48196 12.036 2.46448 12.1243 2.46448C12.2126 2.46448 12.3001 2.48196 12.3816 2.51593C12.4631 2.54989 12.5371 2.59966 12.5993 2.66236L14.3253 4.39501C14.4499 4.52036 14.5198 4.68991 14.5198 4.86664C14.5198 5.04338 14.4499 5.21293 14.3253 5.33827L12.7933 6.87692H7.44147V8.21488C7.44147 8.3923 7.37099 8.56246 7.24553 8.68792C7.12008 8.81338 6.94992 8.88386 6.7725 8.88386C6.59507 8.88386 6.42491 8.81338 6.29946 8.68792C6.174 8.56246 6.10352 8.3923 6.10352 8.21488V6.20795C6.10352 5.8531 6.24448 5.51278 6.4954 5.26187C6.74631 5.01095 7.08663 4.86999 7.44147 4.86999ZM3.4276 8.21488V10.8908L1.89564 12.4228C1.77105 12.5481 1.70111 12.7176 1.70111 12.8944C1.70111 13.0711 1.77105 13.2407 1.89564 13.366L3.62161 15.0987C3.6838 15.1614 3.75779 15.2111 3.83931 15.2451C3.92083 15.2791 4.00827 15.2966 4.09658 15.2966C4.1849 15.2966 4.27234 15.2791 4.35386 15.2451C4.43538 15.2111 4.50937 15.1614 4.57156 15.0987L7.44147 12.2288H10.1174C10.2948 12.2288 10.465 12.1583 10.5904 12.0328C10.7159 11.9074 10.7864 11.7372 10.7864 11.5598V10.8908H11.4553C11.6328 10.8908 11.8029 10.8203 11.9284 10.6949C12.0538 10.5694 12.1243 10.3992 12.1243 10.2218V9.55284H12.7933C12.9707 9.55284 13.1409 9.48236 13.2663 9.3569C13.3918 9.23144 13.4623 9.06128 13.4623 8.88386V8.21488H8.77943V8.88386C8.77943 9.23871 8.63847 9.57902 8.38755 9.82994C8.13664 10.0809 7.79632 10.2218 7.44147 10.2218H6.10352C5.74867 10.2218 5.40836 10.0809 5.15744 9.82994C4.90652 9.57902 4.76556 9.23871 4.76556 8.88386V6.87692L3.4276 8.21488Z" fill="#292E3D"/>
</g>
<defs>
<clipPath id="clip0_317_411">
<rect width="16.0555" height="16.0555" fill="white" transform="translate(0.0827026 0.85614)"/>
</clipPath>
</defs>
</svg>
